<?xml version="1.0" standalone="no"?>
<!DOCTYPE svg PUBLIC "-//W3C//DTD SVG 20010904//EN"
 "http://www.w3.org/TR/2001/REC-SVG-20010904/DTD/svg10.dtd">
<svg version="1.0" xmlns="http://www.w3.org/2000/svg"
 width="1000.000000pt" height="1000.000000pt" viewBox="0 0 1000.000000 1000.000000"
 preserveAspectRatio="xMidYMid meet">
<metadata>
Created by potrace 1.11, written by Peter Selinger 2001-2013
</metadata>
<g transform="translate(0.000000,1000.000000) scale(0.100000,-0.100000)"
fill="#000000" stroke="none">
<path d="M35 7858 c4 -183 10 -292 20 -358 3 -19 7 -55 10 -80 3 -25 12 -81
20 -125 8 -44 16 -91 19 -105 8 -48 55 -225 79 -300 128 -395 309 -661 622
-912 138 -111 415 -308 433 -308 3 0 13 -7 23 -16 10 -9 31 -23 48 -32 25 -14
287 -169 341 -202 8 -5 40 -22 70 -38 30 -17 98 -53 150 -82 98 -54 694 -350
703 -350 3 0 43 -17 89 -39 46 -21 108 -49 138 -62 62 -27 70 -34 64 -62 -20
-107 -32 -492 -19 -622 2 -22 6 -72 9 -112 37 -442 173 -861 382 -1175 35 -53
70 -103 77 -110 6 -8 36 -41 64 -75 67 -78 112 -123 199 -198 38 -33 60 -48
49 -34 -191 248 -280 394 -372 609 -68 158 -138 385 -158 510 -3 19 -8 42 -10
50 -2 8 -7 42 -10 75 -3 33 -10 89 -14 125 -9 67 -6 388 3 450 10 66 18 125
22 155 2 17 8 53 14 80 6 28 12 59 14 70 15 77 97 351 115 380 3 6 6 15 7 20
1 6 13 36 28 67 14 31 26 59 26 62 0 3 16 37 34 76 l35 71 -69 45 c-38 24 -73
44 -79 44 -6 0 -11 5 -11 10 0 6 -4 10 -9 10 -5 0 -67 37 -138 81 -70 45 -137
87 -148 93 -11 6 -22 14 -25 17 -3 3 -16 12 -30 19 -38 20 -539 355 -712 476
-329 231 -875 649 -1004 769 -6 6 -32 28 -58 50 -27 22 -60 51 -75 64 -449
403 -727 713 -910 1014 -30 48 -55 87 -56 87 -2 0 -2 -82 0 -182z"/>
<path d="M9950 8015 c-6 -15 -43 -77 -84 -139 -142 -214 -312 -413 -571 -667
-138 -134 -214 -204 -365 -333 -63 -54 -126 -108 -140 -120 -14 -12 -59 -49
-100 -81 -41 -33 -80 -64 -87 -71 -6 -6 -56 -44 -110 -85 -54 -41 -100 -76
-103 -80 -3 -3 -23 -18 -45 -35 -22 -16 -44 -33 -50 -37 -11 -9 -70 -52 -186
-137 -40 -30 -146 -105 -234 -167 -88 -61 -164 -116 -170 -120 -23 -19 -492
-327 -635 -418 -85 -53 -166 -105 -180 -114 -14 -9 -29 -18 -35 -21 -27 -14
-205 -123 -205 -126 0 -2 21 -50 46 -106 143 -322 219 -603 250 -928 6 -68 6
-325 0 -400 -7 -73 -34 -256 -46 -300 -5 -19 -11 -49 -14 -66 -8 -46 -85 -283
-107 -328 -10 -22 -19 -44 -19 -49 0 -10 -81 -173 -129 -262 -54 -97 -140
-224 -210 -310 -65 -80 -65 -80 -21 -45 114 88 340 343 390 440 7 14 16 27 19
30 17 14 113 206 154 305 61 154 136 408 151 520 9 64 27 191 31 213 25 146
24 607 0 789 l-8 53 39 16 c237 99 947 448 1114 548 19 12 49 28 65 36 17 8
41 22 55 31 14 9 81 49 150 90 452 266 793 536 978 774 11 14 74 113 103 160
114 190 223 504 273 785 3 14 5 27 6 30 2 3 2 8 2 11 -1 3 5 44 13 90 7 46 16
120 20 164 4 44 8 98 11 120 6 65 6 356 0 362 -3 3 -10 -7 -16 -22z"/>
<path d="M350 6072 c0 -5 9 -47 21 -93 12 -46 22 -88 24 -94 1 -5 4 -17 7 -25
3 -8 16 -44 28 -80 11 -36 25 -74 30 -85 5 -11 24 -54 43 -95 55 -125 91 -189
176 -315 153 -226 358 -426 606 -590 314 -210 776 -390 1153 -451 20 -4 44 -8
52 -9 8 -2 27 -4 41 -4 14 -1 26 -7 26 -13 1 -35 18 -151 38 -262 51 -270 177
-591 321 -811 41 -64 181 -245 189 -245 3 0 -10 24 -29 53 -142 224 -256 521
-312 812 -4 22 -8 45 -10 50 -4 18 -18 127 -31 235 -16 142 -7 632 13 684 7
18 8 17 -156 76 -143 51 -309 116 -375 145 -27 13 -104 47 -170 75 -541 237
-1164 614 -1544 934 -128 108 -141 118 -141 108z"/>
<path d="M9605 6042 c-52 -48 -134 -116 -215 -177 -36 -27 -69 -53 -75 -58
-100 -81 -500 -341 -685 -444 -116 -65 -162 -90 -311 -165 -305 -156 -663
-310 -934 -403 -27 -9 -58 -21 -67 -26 -10 -5 -25 -9 -34 -9 -13 0 -15 -8 -10
-47 24 -185 25 -565 2 -713 -2 -14 -7 -47 -10 -75 -42 -335 -166 -699 -326
-955 l-41 -65 51 55 c112 120 271 397 349 605 52 140 100 315 116 425 4 24 8
47 10 50 2 3 6 32 10 65 3 33 7 69 10 80 2 11 4 25 4 31 1 7 27 15 59 20 31 4
59 8 62 9 15 3 96 15 100 15 3 -1 17 3 33 9 15 6 38 13 50 15 46 8 249 65 297
84 8 3 17 6 20 7 3 1 18 7 33 13 16 7 33 12 38 12 5 0 17 4 27 10 9 5 67 30
127 56 431 182 807 484 1043 835 87 130 174 300 224 439 28 77 77 248 84 290
3 19 8 38 11 43 12 19 -16 3 -52 -31z"/>
<path d="M4610 5490 c-9 -6 -10 -10 -3 -10 6 0 15 5 18 10 8 12 4 12 -15 0z"/>
<path d="M4570 5479 c0 -5 5 -7 10 -4 6 3 10 8 10 11 0 2 -4 4 -10 4 -5 0 -10
-5 -10 -11z"/>
<path d="M5425 5479 c4 -5 13 -9 21 -9 33 0 234 -85 326 -138 245 -140 465
-365 600 -611 74 -134 150 -355 171 -491 41 -264 21 -526 -58 -765 -50 -151
-170 -374 -265 -490 -99 -121 -301 -295 -425 -367 -151 -88 -375 -171 -520
-192 -22 -4 -65 -10 -95 -15 -91 -16 -352 -6 -467 17 -397 80 -744 302 -979
628 -101 140 -214 384 -249 539 -4 17 -9 39 -12 50 -2 11 -6 34 -8 50 -3 17
-8 48 -12 70 -15 76 -7 404 11 490 10 44 19 90 22 102 22 109 113 324 187 442
191 307 499 555 820 661 38 12 66 24 64 27 -10 10 -228 -71 -337 -126 -96 -47
-195 -106 -245 -143 -98 -74 -135 -107 -220 -190 -55 -55 -116 -120 -135 -146
-19 -26 -40 -53 -47 -60 -27 -28 -129 -203 -174 -297 -76 -160 -125 -319 -153
-500 -2 -16 -8 -50 -11 -74 -9 -54 -9 -320 0 -381 3 -25 10 -72 16 -105 6 -33
12 -69 13 -80 18 -107 84 -288 158 -435 275 -545 794 -903 1403 -969 86 -9
319 -7 400 4 75 10 277 56 300 68 11 6 20 9 20 8 0 -7 121 38 201 75 74 34
239 130 293 171 306 230 524 525 642 869 21 62 40 123 43 136 2 13 9 46 16 73
6 28 14 68 16 90 3 22 9 65 14 95 8 59 7 401 -2 416 -4 5 -9 34 -13 64 -4 30
-9 58 -11 61 -2 3 -6 21 -9 40 -3 19 -16 70 -29 114 -114 392 -366 737 -718
983 -25 17 -51 32 -56 32 -6 0 -12 4 -14 9 -5 14 -265 136 -348 164 -105 36
-151 47 -145 36z"/>
<path d="M1090 4485 c0 -9 67 -101 113 -155 156 -183 335 -328 527 -427 119
-60 204 -95 305 -123 118 -33 241 -56 335 -62 l54 -3 33 -67 c54 -114 233
-360 233 -321 0 6 -3 13 -8 15 -20 9 -87 174 -136 333 -32 107 -99 390 -99
423 0 8 -18 12 -51 13 -205 2 -427 49 -776 165 -98 33 -501 194 -517 206 -7 6
-13 7 -13 3z"/>
<path d="M8895 4482 c-20 -19 -336 -145 -520 -208 -90 -31 -283 -90 -327 -100
-10 -2 -26 -6 -35 -8 -60 -14 -175 -36 -218 -42 -87 -11 -99 -12 -167 -13
l-67 -1 -6 -37 c-4 -21 -26 -119 -51 -219 -49 -202 -98 -354 -149 -459 l-34
-70 45 50 c59 66 145 194 183 275 24 50 36 65 53 66 50 3 164 15 178 19 8 2
31 7 50 10 51 9 210 54 245 69 17 8 41 17 55 21 85 26 291 146 415 243 129
100 373 372 363 403 -2 6 -7 6 -13 1z"/>
</g>
</svg>
